<svg version="1.1" id="Layer_1" xmlns="http://www.w3.org/2000/svg" xmlns:xlink="http://www.w3.org/1999/xlink" x="0px" y="0px"
	 width="100%" viewBox="0 0 1024 576" enable-background="new 0 0 1024 576" xml:space="preserve">
<path fill="#000000" opacity="1.000000" stroke="none" 
	d="
M953.271851,315.000061 
	C953.271667,332.325470 953.133484,349.152771 953.361572,365.975098 
	C953.423523,370.547913 951.986450,372.293976 947.387634,372.068237 
	C941.570312,371.782654 935.711487,371.680481 929.904602,372.043457 
	C924.688660,372.369507 923.467590,370.233429 923.524902,365.344940 
	C923.759033,345.357147 923.661194,325.364685 923.567078,305.374481 
	C923.548340,301.394684 923.203369,297.390961 922.668091,293.444458 
	C921.637390,285.845978 917.341125,281.527405 909.845398,280.154388 
	C892.388428,276.956818 879.632629,288.151306 879.382019,307.353516 
	C879.127686,326.841095 879.167725,346.335907 879.393188,365.823914 
	C879.449707,370.704132 877.784424,372.321411 873.055054,372.078461 
	C867.073059,371.771088 861.058533,371.809601 855.069519,372.022308 
	C850.985413,372.167389 849.532654,370.683350 849.561340,366.529999 
	C849.713318,344.541382 849.633057,322.551147 849.632690,300.561493 
	C849.632202,272.741241 849.741516,244.920120 849.527527,217.101517 
	C849.489441,212.156067 850.741882,210.194244 855.929382,210.562103 
	C861.896606,210.985275 867.925171,210.854691 873.911072,210.595200 
	C878.093628,210.413864 879.375061,212.049789 879.337036,216.111649 
	C879.180908,232.768936 879.272644,249.428635 879.307922,266.087402 
	C879.311035,267.540222 878.922852,269.078461 880.016174,270.697418 
	C882.085693,270.239075 883.100586,268.397919 884.269287,266.970367 
	C896.765381,251.706696 922.372437,251.799683 935.370789,258.756195 
	C946.280457,264.594818 950.462402,274.596436 952.315918,286.076752 
	C953.840088,295.517151 953.077454,305.021881 953.271851,315.000061 
z"/>
<path fill="#000000" opacity="1.000000" stroke="none" 
	d="
M406.259613,320.607239 
	C398.281128,299.723175 390.461670,279.193787 382.663208,258.656464 
	C382.559814,258.384216 382.722656,258.010895 382.798828,257.367249 
	C386.145660,255.829498 389.821991,256.770935 393.359802,256.630890 
	C398.183167,256.439911 403.036255,256.806183 407.843567,256.466125 
	C411.446411,256.211273 413.141113,257.426575 414.350494,260.871887 
	C422.509460,284.114624 430.879517,307.283264 439.202118,330.468414 
	C439.799469,332.132507 439.897400,334.094452 441.739105,335.226929 
	C444.169525,334.247467 444.156281,331.785736 444.822693,329.885345 
	C452.533997,307.895386 460.298126,285.921753 467.701355,263.827576 
	C469.485962,258.501556 471.821777,255.911270 477.891602,256.436096 
	C485.121704,257.061249 492.447205,256.583344 499.347412,256.583344 
	C500.509399,258.329102 499.770386,259.392303 499.374420,260.435669 
	C483.663483,301.831818 468.026886,343.256622 452.142670,384.586243 
	C448.296234,394.594452 442.986908,403.872894 434.471252,410.831879 
	C423.661530,419.665527 410.974945,421.183838 397.679932,419.892609 
	C393.557678,419.492279 389.433228,418.887604 385.466125,417.490601 
	C382.685364,416.511353 381.432098,415.092041 382.206177,411.894745 
	C383.534668,406.407349 384.593048,400.845673 385.530609,395.275757 
	C386.106384,391.855286 387.897003,391.139557 390.822845,392.260651 
	C395.617828,394.097961 400.601837,394.005493 405.611084,393.915894 
	C414.709503,393.753113 420.950745,389.497894 424.874054,381.289368 
	C426.649261,377.575165 427.060181,374.264648 425.508331,370.340271 
	C419.019257,353.930573 412.762299,337.429108 406.259613,320.607239 
z"/>
<path fill="#000000" opacity="1.000000" stroke="none" 
	d="
M678.286865,257.436584 
	C696.156921,264.041748 706.690918,278.921051 707.281372,298.161926 
	C707.444763,303.485687 707.373291,308.818634 707.321045,314.146515 
	C707.262512,320.115631 706.341919,321.092438 700.296387,321.107025 
	C679.647888,321.156891 658.999146,321.118561 638.350525,321.126373 
	C630.674377,321.129272 630.691895,321.158966 632.584717,328.664795 
	C635.352478,339.639709 642.012207,346.384003 653.428223,348.017792 
	C664.849670,349.652252 675.256714,347.966858 682.064697,337.557281 
	C684.868286,333.270660 687.287598,333.400360 690.914246,335.970734 
	C694.578064,338.567444 698.285156,341.183289 702.256958,343.243713 
	C706.631592,345.513123 706.272827,348.084259 703.923279,351.551819 
	C697.154297,361.541809 688.535400,369.006439 676.537781,371.879547 
	C662.773926,375.175568 649.030640,374.747375 635.698730,370.145203 
	C614.597778,362.861206 604.712585,346.670776 601.754944,325.460938 
	C600.102173,313.608856 600.911926,301.902588 604.523132,290.450195 
	C611.272156,269.046570 629.352905,255.441055 651.787842,254.592194 
	C660.654297,254.256699 669.398926,254.500732 678.286865,257.436584 
M672.647583,282.839905 
	C664.128601,276.126282 654.825928,276.041290 645.411682,280.241364 
	C636.737732,284.111145 633.981506,292.002655 632.469482,300.596405 
	C633.339417,301.028870 633.770264,301.428925 634.203430,301.431396 
	C648.007446,301.510406 661.811829,301.560760 675.616089,301.588959 
	C678.392090,301.594635 678.849609,299.719147 678.675964,297.502411 
	C678.263306,292.235992 676.620911,287.435181 672.647583,282.839905 
z"/>
<path fill="#000000" opacity="1.000000" stroke="none" 
	d="
M365.363312,317.000122 
	C365.360840,333.825104 365.245544,350.151428 365.434387,366.474182 
	C365.482086,370.595734 364.134705,372.183441 360.015106,372.045624 
	C353.691650,371.834137 347.351135,371.803375 341.028473,372.014343 
	C336.802216,372.155365 335.504242,370.350342 335.666718,366.346924 
	C335.902924,360.526154 335.727448,354.688599 335.727417,348.858215 
	C335.727417,332.866272 335.760040,316.874237 335.717499,300.882416 
	C335.680573,287.003754 332.146942,281.847076 321.526276,279.935211 
	C309.331329,277.739929 298.524628,283.428192 294.330353,294.286713 
	C292.014801,300.281403 291.475037,306.601562 291.427826,312.921783 
	C291.295898,330.578644 291.224426,348.238678 291.445129,365.893524 
	C291.501587,370.409485 290.221008,372.248901 285.574951,372.042145 
	C279.423431,371.768463 273.248108,371.856659 267.088287,372.006409 
	C263.411987,372.095764 261.649994,371.006958 261.662109,366.916718 
	C261.766357,331.768097 261.751648,296.618896 261.651642,261.470215 
	C261.641144,257.783783 262.936890,256.483185 266.592499,256.530121 
	C272.914215,256.611328 279.243042,256.347778 285.565002,256.120728 
	C289.206787,255.989944 290.635162,257.525360 290.388458,261.199799 
	C290.136719,264.949036 290.332764,268.728302 290.332764,272.505188 
	C292.960938,272.615051 293.347168,270.899506 294.110291,269.759827 
	C307.184021,250.234741 336.926941,251.539795 349.992767,259.981873 
	C361.127197,267.175995 364.499542,278.657532 365.216553,291.018036 
	C365.707794,299.486389 365.344482,308.004333 365.363312,317.000122 
z"/>
<path fill="#000000" opacity="1.000000" stroke="none" 
	d="
M105.812935,248.493561 
	C105.404144,244.813644 102.898033,245.367111 100.822639,245.360138 
	C89.665657,245.322647 78.505035,245.182205 67.353104,245.422424 
	C63.005421,245.516068 61.864834,243.676041 62.028057,239.768616 
	C62.229443,234.947708 62.304020,230.099365 62.023659,225.286743 
	C61.746613,220.531067 63.553185,218.882050 68.353287,218.908585 
	C97.827179,219.071609 127.302399,218.993668 156.777176,218.997345 
	C163.105026,218.998138 169.433472,219.057983 175.760483,218.987137 
	C179.111115,218.949615 180.539764,220.314606 180.420837,223.783600 
	C180.226959,229.438828 180.226257,235.110031 180.413620,240.765564 
	C180.531036,244.309860 179.017395,245.397873 175.665054,245.362137 
	C164.842285,245.246735 154.010529,245.555878 143.196487,245.229477 
	C138.300797,245.081711 136.991104,246.775177 137.012970,251.501190 
	C137.186966,289.134857 137.131958,326.769623 137.147125,364.404022 
	C137.150131,371.881195 137.044617,371.995819 129.697281,372.008545 
	C124.202011,372.018066 118.706703,372.005585 113.211418,372.004303 
	C105.933731,372.002563 105.845810,371.908142 105.845840,364.336731 
	C105.845993,325.869873 105.844276,287.403015 105.812935,248.493561 
z"/>
<path fill="#000000" opacity="1.000000" stroke="none" 
	d="
M821.897461,285.921051 
	C817.957092,288.760010 814.312378,291.393921 810.656677,294.012665 
	C808.183594,295.784302 805.851807,295.822174 804.479309,292.815155 
	C798.845337,280.471222 785.496887,277.764496 774.773560,280.439362 
	C762.542358,283.490387 758.082703,293.084229 756.610413,304.181152 
	C755.565613,312.056030 755.603088,320.125061 757.342285,328.045868 
	C759.944092,339.895538 767.590759,347.392456 779.570251,348.378906 
	C789.973877,349.235565 799.883972,345.221130 805.091064,333.805206 
	C807.789856,327.888336 807.908691,327.931824 813.449768,330.915894 
	C817.849792,333.285492 822.155884,335.847961 826.656311,338.006683 
	C829.981384,339.601562 830.367798,341.589630 828.966675,344.783630 
	C822.356445,359.851318 811.584717,369.888397 795.019897,372.617188 
	C774.610840,375.979248 755.755615,372.945465 740.602844,357.493347 
	C732.149658,348.873169 727.674622,338.102173 726.294739,326.237091 
	C724.563660,311.352051 724.979187,296.588531 731.940674,282.805908 
	C740.946716,264.975494 755.943054,256.215424 775.480164,254.665283 
	C786.534973,253.788177 797.451172,254.434799 807.791382,258.963623 
	C814.817871,262.041107 820.602966,266.647705 824.722351,273.237335 
	C829.402466,280.723816 829.437073,280.702179 821.897461,285.921051 
z"/>
<path fill="#000000" opacity="1.000000" stroke="none" 
	d="
M556.399658,280.221558 
	C553.438660,280.119110 552.339844,281.305603 552.348572,283.830139 
	C552.405273,300.320740 551.986267,316.826538 552.570374,333.297363 
	C553.020203,345.980408 562.566467,350.896667 574.925659,345.644745 
	C581.537537,342.835022 581.534851,342.835968 583.918091,349.651337 
	C585.401245,353.892731 586.821899,358.158020 588.411133,362.359406 
	C589.283325,364.665283 588.517090,366.002289 586.602661,367.354492 
	C573.573181,376.557556 547.843079,376.147736 535.523987,366.187134 
	C525.928284,358.428497 523.076355,347.497742 522.847290,335.859863 
	C522.519531,319.208313 522.610229,302.544495 522.809082,285.889374 
	C522.860413,281.582428 521.666016,280.062195 517.191650,280.104218 
	C503.788727,280.230103 505.698029,281.623016 505.626465,268.392761 
	C505.560883,256.265839 505.617889,256.123718 517.607483,256.048309 
	C521.534790,256.023590 523.006348,254.711853 522.771667,250.808716 
	C522.532166,246.825699 522.838867,242.812714 522.704651,238.819626 
	C522.600342,235.715454 523.419678,233.876434 526.926941,233.394836 
	C534.005554,232.422867 541.031250,231.065781 548.077942,229.862503 
	C551.039429,229.356781 552.405640,230.488174 552.359375,233.597702 
	C552.270325,239.592865 552.474182,245.593491 552.328552,251.586304 
	C552.249390,254.846008 553.584045,256.051056 556.752197,256.012573 
	C564.413452,255.919556 572.078979,256.109100 579.738403,255.958694 
	C583.830505,255.878342 585.453796,257.523804 585.235413,261.613983 
	C585.004883,265.932648 584.974792,270.286316 585.243408,274.600647 
	C585.522522,279.082367 583.552002,280.399048 579.335266,280.270447 
	C571.846313,280.042023 564.345276,280.210907 556.399658,280.221558 
z"/>
<path fill="#000000" opacity="1.000000" stroke="none" 
	d="
M207.362030,256.141357 
	C213.475098,256.227692 219.135864,256.562012 224.776978,256.356445 
	C228.951599,256.204346 230.279648,257.782532 230.211655,261.853577 
	C230.019958,273.330322 230.150864,284.812439 230.152084,296.292419 
	C230.154556,319.418823 230.053787,342.546051 230.240311,365.670959 
	C230.278824,370.445343 228.670456,372.262573 223.909973,372.053528 
	C217.765533,371.783722 211.599258,371.883484 205.445633,371.997833 
	C201.784714,372.065857 200.000229,370.883301 200.010437,366.843445 
	C200.098709,331.904572 200.136093,296.964874 199.943970,262.026764 
	C199.914032,256.578156 203.020477,256.250946 207.362030,256.141357 
z"/>
<path fill="#000000" opacity="1.000000" stroke="none" 
	d="
M223.454285,241.928192 
	C211.214722,246.040329 200.829041,241.733963 197.811798,231.621002 
	C195.125351,222.616806 199.356232,213.578522 207.755371,210.378891 
	C217.063782,206.832840 227.355270,210.319290 231.410629,218.392548 
	C235.784668,227.100266 232.733139,236.491562 223.454285,241.928192 
z"/>
</svg>